<svg xmlns="http://www.w3.org/2000/svg" width="660" height="422" viewBox="0 0 660 422" role="img" aria-labelledby="title desc">
<title id="title">Four separate provenance drawers</title>
<desc id="desc">Four physically separated instrument drawers: SIMULATOR with a QVM waveform, SEEDED with a deterministic seed cartridge, MEASURED with a retained receipt, and QPU with an asterisk and locked instrument bay. The hardware label requires actual hardware provenance; this artwork claims no current QPU execution.</desc>
<style>
text{font-family:ui-rounded,'Trebuchet MS',system-ui,sans-serif;fill:#fff2d8}
.label{font-weight:700;letter-spacing:1px}.ink{fill:#352017}.mono{font-family:ui-monospace,monospace}
.breathe{animation:breathe 4.8s ease-in-out infinite;transform-box:fill-box;transform-origin:center bottom}
.eyes{animation:blink 6.7s ease-in-out infinite;transform-box:fill-box;transform-origin:center}
.tail{animation:tail 6s ease-in-out infinite;transform-box:fill-box;transform-origin:left bottom}
.wing{animation:wing 7s ease-in-out infinite;transform-box:fill-box;transform-origin:right bottom}
.float{animation:float 6.5s ease-in-out infinite}.twinkle{animation:twinkle 6s ease-in-out infinite}
.sway{animation:sway 8s ease-in-out infinite;transform-box:fill-box;transform-origin:center bottom}
.pulse{animation:pulse 5.8s ease-in-out infinite}.steam{animation:steam 7s ease-in-out infinite}
.cursor{animation:cursor 2s steps(1,end) infinite}.trail{stroke-dasharray:3 18;animation:trail 16s linear infinite}
.orbit{animation:orbit 55s linear infinite;transform-origin:0px 0px}
.munch{animation:munch 4.8s ease-in-out infinite;transform-box:fill-box;transform-origin:center}
@keyframes breathe{0%,100%{transform:scale(1)}50%{transform:scale(1.012,1.022)}}
@keyframes blink{0%,90%,96%,100%{transform:scaleY(1)}93%,94%{transform:scaleY(.07)}}
@keyframes tail{0%,100%{transform:rotate(-2deg)}50%{transform:rotate(4deg)}}
@keyframes wing{0%,100%{transform:rotate(0)}50%{transform:rotate(-3deg)}}
@keyframes float{0%,100%{transform:translateY(0)}50%{transform:translateY(-6px)}}
@keyframes twinkle{0%,100%{opacity:.38}50%{opacity:.85}}
@keyframes sway{0%,100%{transform:rotate(-1.5deg)}50%{transform:rotate(1.5deg)}}
@keyframes pulse{0%,100%{opacity:.55}50%{opacity:.9}}
@keyframes steam{0%,100%{opacity:.15;transform:translateY(0)}50%{opacity:.5;transform:translateY(-9px)}}
@keyframes cursor{0%,65%,100%{opacity:1}70%,95%{opacity:.25}}
@keyframes trail{to{stroke-dashoffset:-168}}
@keyframes orbit{to{transform:rotate(360deg)}}
@keyframes munch{0%,65%,100%{transform:scale(1)}72%,86%{transform:scale(1.03,.96)}}
@media(prefers-reduced-motion:reduce){*,*::before,*::after{animation:none!important;transition:none!important}}
</style>
<defs>
<linearGradient id="night" x2=".85" y2="1"><stop stop-color="#10142d"/><stop offset=".55" stop-color="#181735"/><stop offset="1" stop-color="#090e20"/></linearGradient>
<radialGradient id="nebula"><stop stop-color="#6d397b" stop-opacity=".45"/><stop offset="1" stop-color="#161b38" stop-opacity="0"/></radialGradient>
<linearGradient id="wood" x2="0" y2="1"><stop stop-color="#96572f"/><stop offset=".25" stop-color="#66351f"/><stop offset=".8" stop-color="#3b211b"/><stop offset="1" stop-color="#8a4c2c"/></linearGradient>
<linearGradient id="brass" x2=".8" y2="1"><stop stop-color="#fff0b0"/><stop offset=".25" stop-color="#d9a95c"/><stop offset=".6" stop-color="#886031"/><stop offset="1" stop-color="#edc685"/></linearGradient>
<linearGradient id="hide" x2=".5" y2="1"><stop stop-color="#9a7060"/><stop offset=".3" stop-color="#765346"/><stop offset="1" stop-color="#493334"/></linearGradient>
<linearGradient id="flame" x2=".65" y2="1"><stop stop-color="#ffd97b"/><stop offset=".32" stop-color="#ff9c49"/><stop offset=".65" stop-color="#ef602e"/><stop offset="1" stop-color="#a33237"/></linearGradient>
<linearGradient id="glass" x2="1" y2=".8"><stop stop-color="#8cefff" stop-opacity=".14"/><stop offset=".45" stop-color="#59a7dd" stop-opacity=".02"/><stop offset="1" stop-color="#b8efff" stop-opacity=".14"/></linearGradient>
<radialGradient id="lamp"><stop stop-color="#ffe1a0" stop-opacity=".22"/><stop offset="1" stop-color="#ffd98c" stop-opacity="0"/></radialGradient>
<radialGradient id="aura"><stop stop-color="#65e6ff" stop-opacity=".25"/><stop offset="1" stop-color="#63d7ff" stop-opacity="0"/></radialGradient>
<pattern id="grain" width="160" height="36" patternUnits="userSpaceOnUse"><path d="M-20 8Q30 0 75 10T180 9M-20 26Q36 16 72 27T180 25M40 18q22-9 50 0" fill="none" stroke="#e5a968" stroke-width="1" opacity=".14"/></pattern>
<pattern id="pixels" width="24" height="24" patternUnits="userSpaceOnUse"><path d="M0 23H24M23 0V24" stroke="#78bcb1" opacity=".08"/></pattern>
<filter id="glow" x="-60%" y="-60%" width="220%" height="220%"><feGaussianBlur stdDeviation="3" result="b"/><feMerge><feMergeNode in="b"/><feMergeNode in="SourceGraphic"/></feMerge></filter>
</defs>
<rect width="660" height="422" rx="26" fill="url(#night)"/><ellipse cx="448.8" cy="156.14" rx="277.2" ry="219.44" fill="url(#nebula)"/><circle cx="438" cy="284" r="1" fill="#fff0be" opacity=".35"/><circle cx="200" cy="212" r="1" fill="#fff0be" opacity=".35"/><circle cx="316" cy="32" r="1" fill="#fff0be" opacity=".35"/><circle cx="139" cy="309" r="1" fill="#fff0be" opacity=".35"/><circle cx="122" cy="98" r="1.5" fill="#fff0be" opacity=".35"/><circle cx="407" cy="320" r="2" fill="#fff0be" opacity=".35"/><circle cx="353" cy="201" r="1" fill="#fff0be" opacity=".35"/><circle cx="366" cy="162" r="1" fill="#fff0be" opacity=".35"/><circle cx="134" cy="279" r="1" fill="#fff0be" opacity=".35"/><circle cx="622" cy="66" r="1.5" fill="#fff0be" opacity=".35"/><circle cx="342" cy="73" r="1.5" fill="#fff0be" opacity=".35"/><circle cx="55" cy="194" r="2" fill="#fff0be" opacity=".35"/><circle cx="118" cy="262" r="2" fill="#fff0be" opacity=".35"/><circle cx="215" cy="114" r="1" fill="#fff0be" opacity=".35"/><circle cx="284" cy="400" r="1" fill="#fff0be" opacity=".35"/><circle cx="70" cy="40" r="2" fill="#fff0be" opacity=".35"/><circle cx="58" cy="396" r="1.5" fill="#fff0be" opacity=".35"/><circle cx="398" cy="259" r="2" fill="#fff0be" opacity=".35"/><circle cx="624" cy="294" r="1" fill="#fff0be" opacity=".35"/><circle cx="258" cy="265" r="2" fill="#fff0be" opacity=".35"/><circle cx="374" cy="333" r="1" fill="#fff0be" opacity=".35"/><circle cx="304" cy="98" r="1" fill="#fff0be" opacity=".35"/><circle cx="248" cy="25" r="1.5" fill="#fff0be" opacity=".35"/><circle cx="385" cy="306" r="1" fill="#fff0be" opacity=".35"/><circle cx="434" cy="75" r="1.5" fill="#fff0be" opacity=".35"/><circle cx="368" cy="75" r="1" fill="#fff0be" opacity=".35"/><circle cx="80" cy="239" r="1" fill="#fff0be" opacity=".35"/><circle cx="505" cy="80" r="1" fill="#fff0be" opacity=".35"/><circle cx="203" cy="346" r="1" fill="#fff0be" opacity=".35"/><circle cx="320" cy="348" r="1" fill="#fff0be" opacity=".35"/><circle cx="298" cy="56" r="1" fill="#fff0be" opacity=".35"/><circle cx="465" cy="158" r="1" fill="#fff0be" opacity=".35"/><circle cx="556" cy="338" r="1" fill="#fff0be" opacity=".35"/><circle cx="82" cy="161" r="2" fill="#fff0be" opacity=".35"/><path d="M32 40h281v157l-15 15H32Z" fill="url(#wood)" stroke="#8f6747" stroke-width="3"/><rect x="44" y="50" width="254" height="150" rx="9" fill="#192736" stroke="#b49bd6" stroke-width="2"/><rect x="59" y="66" width="116" height="73" rx="7" fill="#292240" stroke="#a487bf"/><path d="M68 105h15l9-23 18 48 15-48 15 47 10-24h13" fill="none" stroke="#bdb2e7" stroke-width="3"/><circle class="pulse" cx="148" cy="77" r="4" fill="#d0b1f3"/><g transform="translate(240 132) rotate(0) scale(0.65)"><path d="M-33-74H30v76H-33q-8-1-8-9v-60q0-7 8-7" fill="#4e3d67" stroke="#b99a62" stroke-width="2"/><path d="M-32-70v67M-29-3H28M-29-8H28" stroke="#e4c895" stroke-width="2"/><path d="M-18-53h33M-18-44h24" stroke="#c9a973" stroke-width="1.5"/><text x="0" y="-21" font-size="18" text-anchor="middle" class="label" style="fill:#f8dca8">QVM</text></g><text x="171" y="183" font-size="25" text-anchor="middle" class="label" style="fill:#b49bd6">SIMULATOR</text><path d="M148 213h47" stroke="#d6b577" stroke-width="5" stroke-linecap="round"/><path d="M348 40h281v157l-15 15H348Z" fill="url(#wood)" stroke="#8f6747" stroke-width="3"/><rect x="360" y="50" width="254" height="150" rx="9" fill="#192736" stroke="#edcb87" stroke-width="2"/><g transform="translate(431 113) rotate(0) scale(0.82)"><g class="float"><path d="M0-49L22-18 15 15 0 25-16 14-24-15Z" fill="#f2cd81" fill-opacity=".7" stroke="#d5f8ff" stroke-width="2"/><path d="M0-49L-6-9 0 25 8-7 0-49M-24-15l18 6 28-9M-6-9l-10 23" fill="none" stroke="#f2fdff" stroke-opacity=".45"/></g></g><g transform="translate(552 127) rotate(0) scale(0.72)"><rect x="-35" y="-48" width="70" height="65" rx="6" fill="#605466" stroke="#b998c0" stroke-width="2"/><rect x="-27" y="-40" width="54" height="29" rx="4" fill="#dad2b1"/><path d="M-23 7h46" stroke="#d7b974" stroke-width="8"/><text x="0" y="-20" font-size="15" text-anchor="middle" class="label" style="fill:#47334b">SEED</text></g><text x="487" y="183" font-size="25" text-anchor="middle" class="label" style="fill:#edcb87">SEEDED</text><path d="M464 213h47" stroke="#d6b577" stroke-width="5" stroke-linecap="round"/><path d="M32 239h281v157l-15 15H32Z" fill="url(#wood)" stroke="#8f6747" stroke-width="3"/><rect x="44" y="249" width="254" height="150" rx="9" fill="#192736" stroke="#9edee1" stroke-width="2"/><path d="M71 263h74v78l-8-5-8 5-8-5-8 5-8-5-8 5-8-5-8 5v-78Z" fill="#bddadd"/><path d="M82 276h51m-51 12h39m-39 12h49m-49 12h31" stroke="#488395" stroke-width="2"/><path d="M199 326v-17h13v17m10 0v-36h13v36m10 0v-49h13v49" stroke="#9ddeea" stroke-width="4" fill="none"/><text x="171" y="382" font-size="25" text-anchor="middle" class="label" style="fill:#9edee1">MEASURED</text><path d="M148 412h47" stroke="#d6b577" stroke-width="5" stroke-linecap="round"/><path d="M348 239h281v157l-15 15H348Z" fill="url(#wood)" stroke="#8f6747" stroke-width="3"/><rect x="360" y="249" width="254" height="150" rx="9" fill="#192736" stroke="#b0b5c2" stroke-width="2"/><rect x="395" y="267" width="187" height="71" rx="7" fill="#141b2b" stroke="#677580" stroke-dasharray="4 7"/><path d="M475 299v-11q0-16 16-16q16 0 16 16v11" fill="none" stroke="#a4acb8" stroke-width="4"/><rect x="470" y="296" width="41" height="31" rx="5" fill="#7a8498"/><circle cx="490" cy="310" r="4" fill="#20283b"/><text x="487" y="382" font-size="25" text-anchor="middle" class="label" style="fill:#b0b5c2">QPU*</text><path d="M464 412h47" stroke="#d6b577" stroke-width="5" stroke-linecap="round"/>
</svg>
